<?xml version="1.0" standalone="no"?>
<!DOCTYPE svg PUBLIC "-//W3C//DTD SVG 20010904//EN"
 "http://www.w3.org/TR/2001/REC-SVG-20010904/DTD/svg10.dtd">
<svg version="1.0" xmlns="http://www.w3.org/2000/svg"
 width="996.000000pt" height="996.000000pt" viewBox="0 0 996.000000 996.000000"
 preserveAspectRatio="xMidYMid meet">
<metadata>
Created by potrace 1.11, written by Peter Selinger 2001-2013
</metadata>
<g transform="translate(0.000000,996.000000) scale(0.100000,-0.100000)"
fill="#000000" stroke="none">
<path d="M2020 4980 l0 -4980 2960 0 2960 0 0 4980 0 4980 -2960 0 -2960 0 0
-4980z m1037 4379 c49 0 93 1 98 2 6 1 14 1 19 0 6 -1 62 -2 125 -1 64 0 123
1 131 1 8 0 56 0 105 -1 50 -1 95 0 100 1 6 1 14 1 18 0 10 -2 929 -2 942 0 6
1 14 1 19 0 6 -1 62 -2 125 -1 64 0 123 1 131 1 8 0 56 0 105 -1 50 -1 95 0
100 1 6 1 14 1 19 0 6 -1 62 -2 125 -1 64 0 123 1 131 1 8 0 56 0 105 -1 50
-1 95 0 100 1 6 1 14 1 18 0 10 -2 929 -2 942 0 6 1 14 1 19 0 6 -1 62 -2 125
-1 64 0 123 1 131 1 8 0 56 0 105 -1 50 -1 95 0 100 1 6 1 14 1 18 0 22 -4
218 -3 222 1 3 3 19 3 36 0 l30 -4 -2 -74 c-1 -41 0 -77 3 -80 3 -3 2 -21 -2
-40 -4 -19 -4 -36 0 -39 4 -2 4 -23 0 -45 -4 -22 -5 -42 -1 -44 3 -2 4 -180 1
-396 -3 -216 -2 -394 1 -396 4 -2 3 -20 -1 -39 -4 -19 -4 -37 0 -40 4 -2 4
-23 0 -45 -4 -22 -5 -42 -1 -44 3 -2 4 -324 1 -716 -3 -392 -2 -714 1 -716 4
-2 3 -20 -1 -39 -4 -19 -4 -37 0 -40 4 -2 4 -23 0 -45 -4 -22 -5 -42 -1 -44 3
-2 4 -180 1 -396 -3 -216 -2 -394 1 -396 4 -2 3 -20 -1 -39 -4 -19 -4 -37 0
-40 4 -2 4 -23 0 -45 -4 -22 -5 -42 -1 -44 3 -2 4 -756 1 -1676 -3 -920 -2
-1674 1 -1676 4 -2 3 -20 -1 -39 -4 -19 -4 -37 0 -40 4 -2 4 -23 0 -45 -4 -22
-5 -42 -1 -44 3 -2 4 -180 1 -396 -3 -216 -2 -394 1 -396 4 -2 3 -20 -1 -39
-4 -19 -4 -37 0 -40 4 -2 4 -23 0 -45 -4 -21 -5 -41 -3 -44 10 -10 2 -351 -9
-357 -6 -4 -24 -3 -39 1 -16 5 -29 5 -29 0 0 -5 -13 -5 -30 0 -17 5 -30 5 -30
0 0 -5 -13 -5 -30 0 -17 5 -30 5 -30 0 0 -5 -13 -5 -30 0 -17 5 -30 5 -30 0 0
-5 -13 -5 -30 0 -17 5 -30 5 -30 0 0 -5 -13 -5 -30 0 -17 5 -30 5 -30 0 0 -5
-13 -5 -30 0 -17 5 -30 5 -30 0 0 -5 -13 -5 -30 0 -19 5 -30 5 -30 -1 0 -6 -4
-7 -10 -4 -13 8 -118 10 -126 3 -3 -4 -18 -3 -33 2 -16 4 -34 4 -41 0 -7 -4
-25 -4 -40 0 -15 4 -33 4 -40 0 -7 -5 -23 -5 -34 0 -12 4 -30 4 -41 0 -11 -4
-34 -4 -52 1 -18 4 -35 3 -38 -1 -3 -5 -18 -5 -34 0 -15 4 -34 4 -41 0 -7 -4
-25 -4 -40 0 -15 4 -33 4 -40 0 -7 -5 -23 -4 -36 0 -12 5 -24 6 -27 4 -9 -9
-70 -10 -99 -3 -16 4 -28 4 -28 -1 0 -5 -13 -5 -30 0 -17 5 -30 5 -30 0 0 -5
-13 -5 -30 0 -17 5 -30 5 -30 0 0 -5 -13 -5 -30 0 -17 5 -30 5 -30 0 0 -5 -13
-5 -30 0 -17 5 -30 5 -30 0 0 -5 -13 -5 -30 0 -17 5 -30 5 -30 0 0 -5 -13 -5
-30 0 -17 5 -30 5 -30 0 0 -5 -13 -5 -30 0 -17 5 -30 5 -30 0 0 -5 -13 -5 -30
0 -19 5 -30 5 -30 -1 0 -6 -4 -7 -10 -4 -13 8 -118 10 -126 3 -3 -4 -18 -3
-33 2 -16 4 -34 4 -41 0 -7 -4 -25 -4 -40 0 -15 4 -33 4 -40 0 -7 -5 -23 -5
-34 0 -12 4 -30 4 -41 0 -11 -4 -34 -4 -52 1 -18 4 -35 3 -38 -1 -3 -5 -18 -5
-34 0 -15 4 -34 4 -41 0 -7 -4 -25 -4 -40 0 -15 4 -33 4 -40 0 -7 -5 -23 -4
-36 0 -12 5 -24 6 -27 4 -9 -9 -70 -10 -99 -3 -16 4 -28 4 -28 -1 0 -5 -13 -5
-30 0 -17 5 -30 5 -30 0 0 -5 -13 -5 -30 0 -17 5 -30 5 -30 0 0 -5 -13 -5 -30
0 -17 5 -30 5 -30 0 0 -5 -13 -5 -30 0 -17 5 -30 5 -30 0 0 -5 -13 -5 -30 0
-17 5 -30 5 -30 0 0 -5 -13 -5 -30 0 -17 5 -30 5 -30 0 0 -5 -13 -5 -30 0 -17
5 -30 5 -30 0 0 -5 -13 -5 -30 0 -19 5 -30 5 -30 -1 0 -6 -4 -7 -10 -4 -13 8
-118 10 -126 3 -3 -4 -18 -3 -33 2 -16 4 -34 4 -41 0 -7 -4 -25 -4 -40 0 -15
4 -33 4 -40 0 -7 -5 -23 -5 -34 0 -12 4 -30 4 -41 0 -11 -4 -34 -4 -52 1 -18
4 -35 3 -38 -1 -3 -5 -18 -5 -34 0 -15 4 -34 4 -41 0 -7 -4 -25 -4 -40 0 -15
4 -33 4 -40 0 -7 -5 -23 -4 -36 0 -12 5 -24 6 -27 4 -9 -9 -70 -10 -99 -3 -16
4 -28 4 -28 -1 0 -5 -13 -5 -30 0 -17 5 -30 5 -30 0 0 -5 -13 -5 -30 0 -17 5
-30 5 -30 0 0 -5 -13 -5 -30 0 -17 5 -30 5 -30 0 0 -5 -13 -5 -30 0 -17 5 -30
5 -30 0 0 -5 -13 -5 -30 0 -17 5 -30 5 -30 0 0 -5 -13 -5 -30 0 -17 5 -30 5
-30 0 0 -5 -13 -5 -30 0 -17 5 -30 5 -30 0 0 -5 -13 -5 -30 0 -19 5 -30 5 -30
-1 0 -6 -5 -7 -11 -4 -6 4 -34 7 -62 6 -29 -1 -61 -1 -72 -1 -11 0 -32 0 -47
0 -25 0 -28 4 -29 32 -1 18 -1 37 0 41 1 5 1 219 1 475 -1 257 -1 474 -1 482
0 8 0 188 0 400 -1 212 0 390 0 395 2 43 3 147 2 235 0 58 -1 130 0 160 0 30
0 102 0 160 -1 58 -1 130 0 160 0 30 0 102 0 160 -1 58 -1 130 0 160 0 30 0
102 0 160 -1 58 -1 130 0 160 0 30 0 102 0 160 -1 58 -1 130 0 160 0 30 0 102
0 160 -1 58 0 130 0 160 0 30 0 100 0 155 -1 85 -3 529 -3 575 1 8 1 224 1
480 -1 256 -1 472 0 480 0 8 0 224 0 480 -1 256 0 472 0 480 0 8 0 152 0 320
0 168 -1 312 0 320 0 8 0 224 0 480 -1 256 0 472 0 480 0 8 0 148 0 311 l1
297 101 0 c56 1 104 3 107 6 2 3 9 3 13 0 5 -3 48 -5 96 -5z"/>
<path d="M3639 8570 c-1 -3 -2 -706 -3 -1562 -1 -1262 1 -1559 12 -1563 7 -2
159 -5 337 -4 l324 0 -2 946 c-1 521 0 939 1 929 4 -20 97 -183 118 -207 8 -8
14 -20 14 -26 0 -6 4 -13 8 -15 6 -2 307 -420 404 -561 30 -43 110 -153 123
-169 7 -9 19 -27 26 -40 6 -13 15 -25 19 -28 3 -3 31 -41 61 -85 30 -44 62
-87 72 -96 9 -9 17 -21 17 -27 0 -6 6 -17 13 -24 7 -7 38 -49 69 -93 32 -44
61 -84 66 -90 4 -5 28 -39 52 -75 24 -36 49 -71 56 -77 7 -7 22 -29 35 -50 13
-21 28 -43 34 -49 5 -6 16 -20 23 -30 7 -11 31 -45 53 -76 l40 -57 298 -1 298
0 0 1565 c0 1434 -1 1565 -16 1569 -14 3 -648 1 -661 -3 -7 -1 -4 -1751 3
-1816 l5 -50 -32 65 c-17 36 -42 80 -54 97 -12 17 -22 36 -22 42 0 6 -3 11 -7
11 -5 0 -24 25 -43 55 -19 30 -38 55 -42 55 -5 0 -8 6 -8 13 0 8 -9 22 -20 32
-11 10 -20 24 -20 31 0 7 -4 14 -8 16 -7 3 -218 299 -247 347 -5 9 -12 18 -15
21 -7 7 -44 60 -83 118 -17 26 -33 49 -36 52 -4 3 -31 41 -61 85 -30 44 -60
86 -67 93 -7 7 -13 17 -13 22 0 5 -6 15 -13 22 -7 7 -38 49 -68 93 -30 44 -72
104 -92 133 -42 59 -90 127 -144 205 -79 113 -176 252 -180 257 -6 7 -623 7
-624 0z"/>
<path d="M3796 3216 c1 -859 2 -1564 3 -1568 2 -9 150 -13 159 -3 3 2 12 0 21
-5 10 -5 23 -5 30 0 8 4 27 4 42 0 16 -5 29 -5 29 0 0 4 15 5 33 1 17 -4 46
-4 62 -1 17 4 37 3 46 -1 8 -4 21 -4 28 1 8 4 27 4 42 0 16 -5 29 -5 29 0 0 4
16 4 35 0 19 -4 35 -5 35 -1 0 5 19 5 43 1 l43 -6 0 549 c-1 355 3 551 9 556
6 5 142 8 304 7 l293 -1 60 -115 c32 -63 124 -241 203 -395 321 -625 301 -589
329 -596 14 -4 26 -4 26 -1 0 8 114 6 134 -1 8 -3 17 -3 20 1 4 3 25 5 49 4
98 -4 129 -3 134 2 3 3 13 1 22 -4 10 -5 23 -5 30 0 8 4 27 4 42 0 16 -5 31
-5 34 0 3 5 19 5 35 0 16 -5 32 -5 35 -1 2 5 22 5 42 2 21 -4 55 -4 75 -1 23
4 39 3 41 -4 2 -7 5 -7 10 0 3 6 -8 39 -26 75 -17 35 -31 66 -32 69 -1 3 -43
91 -94 195 -51 105 -127 260 -168 345 -42 85 -115 237 -164 338 -49 101 -89
186 -88 190 0 4 30 21 67 39 137 65 267 195 355 354 35 65 94 205 101 242 2
15 7 30 10 35 15 24 27 136 28 247 2 299 -85 544 -262 739 -71 78 -208 164
-320 201 -30 10 -57 18 -60 18 -3 0 -25 5 -50 12 -25 8 -65 16 -90 20 -25 4
-58 9 -75 11 -16 3 -415 7 -885 8 l-855 3 1 -1561z m1564 911 c118 -8 166 -26
222 -84 71 -74 100 -154 100 -278 1 -102 -8 -147 -40 -213 -40 -82 -110 -132
-210 -150 -57 -10 -951 -14 -953 -3 -5 32 -2 727 3 731 7 6 772 3 878 -3z"/>
</g>
</svg>
